<svg version="1.1" viewBox="0 0 1024 1024" xmlns="http://www.w3.org/2000/svg"><path d="M85.33 469.33c25.6 0 42.67 17.07 42.67 42.67 0 213.33 170.67 384 384 384 106.67 0 204.8-42.67 273.07-115.2l-51.2 12.8c-21.33 4.27-46.93-8.53-51.2-29.87-4.27-21.33 8.53-46.93 29.86-51.2l166.4-42.66c21.33-4.27 46.93 8.53 51.2 29.86 4.27 8.53 0 21.33 0 29.87-76.8 149.33-234.67 256-418.13 256-256-4.27-460.8-209.07-469.33-460.8v-12.8c0-25.6 17.07-42.67 42.66-42.67z m426.67-426.66c256 0 460.8 204.8 469.33 456.53v12.8c0 25.6-17.07 42.67-42.66 42.67s-42.67-17.07-42.67-42.67c0-213.33-170.67-384-384-384-106.67 0-204.8 42.67-273.07 115.2l51.2-12.8c21.33-8.53 42.67 4.27 51.2 29.87s-8.53 46.93-29.86 51.2l-166.4 42.66c-21.33 8.53-46.93-4.27-51.2-29.86-4.27-8.53 0-21.33 0-29.87 76.8-149.33 234.67-251.73 418.13-251.73z" fill="#3C6EF0" p-id="0"></path></svg>